<svg xmlns="http://www.w3.org/2000/svg" width="400" height="100" viewBox="0 0 400 100">
  <!-- Box icon -->
  <g transform="translate(0, 20)">
    <path d="M 10 10 L 40 0 L 70 10 L 40 20 Z" fill="#0077C0" />
    <path d="M 10 10 L 10 40 L 40 50 L 40 20 Z" fill="#0077C0" />
    <path d="M 40 20 L 40 50 L 70 40 L 70 10 Z" fill="#015b92" />
  </g>
  
  <!-- Nord text -->
  <g transform="translate(80, 60)">
    <path d="M 0 -25 L 0 25 L 10 25 L 10 5 L 35 25 L 45 25 L 45 -25 L 35 -25 L 35 15 L 10 -5 L 0 -5 Z" fill="#0077C0" />
    <path d="M 55 -25 Q 70 -25 77.5 -17.5 Q 85 -10 85 0 Q 85 10 77.5 17.5 Q 70 25 55 25 Q 40 25 32.5 17.5 Q 25 10 25 0 Q 25 -10 32.5 -17.5 Q 40 -25 55 -25 Z M 55 -15 Q 45 -15 37.5 -7.5 Q 35 -5 35 0 Q 35 5 37.5 7.5 Q 45 15 55 15 Q 65 15 72.5 7.5 Q 75 5 75 0 Q 75 -5 72.5 -7.5 Q 65 -15 55 -15 Z" fill="#0077C0" />
    <path d="M 90 -25 L 100 -25 L 100 5 Q 100 15 110 15 Q 120 15 120 5 L 120 -25 L 130 -25 L 130 5 Q 130 25 110 25 Q 90 25 90 5 Z" fill="#0077C0" />
    <path d="M 135 -25 L 180 -25 L 180 -15 L 165 -15 L 165 25 L 155 25 L 155 -15 L 140 -15 L 140 -25 Z" fill="#1e3951" />
    <path d="M 185 -25 L 195 -25 L 195 15 L 225 15 L 225 25 L 185 25 Z" fill="#1e3951" />
    <path d="M 230 25 L 230 -25 L 240 -25 L 260 5 L 260 -25 L 270 -25 L 270 25 L 260 25 L 240 -5 L 240 25 Z" fill="#1e3951" />
    <path d="M 275 -25 L 305 -25 L 305 -15 L 285 -15 L 285 -5 L 300 -5 L 300 5 L 285 5 L 285 15 L 305 15 L 305 25 L 275 25 Z" fill="#1e3951" />
    <path d="M 310 -25 L 320 -25 L 320 15 L 340 15 L 340 25 L 310 25 Z" fill="#1e3951" />
    <path d="M 345 -25 L 355 -25 L 355 15 L 375 15 L 375 25 L 345 25 Z" fill="#1e3951" />
  </g>
</svg> 