<?xml version="1.0" encoding="UTF-8"?>
<svg version="1.1" xmlns="http://www.w3.org/2000/svg" width="696" height="109">
<path d="M0 0 C8.25 0 16.5 0 25 0 C25.02255037 11.19573603 25.0409147 22.3914571 25.05181217 33.58721066 C25.05704116 38.78528115 25.0641391 43.98333536 25.07543945 49.18139648 C25.08626776 54.19342268 25.09227671 59.20543318 25.09487724 64.21747017 C25.09673159 66.13412282 25.1003524 68.05077457 25.10573006 69.96742058 C25.11293975 72.64228072 25.11399097 75.31707514 25.11352539 77.99194336 C25.11712067 78.7925116 25.12071594 79.59307983 25.12442017 80.41790771 C25.11405216 85.88594784 25.11405216 85.88594784 24 87 C22.29227642 87.08713831 20.58101351 87.10700007 18.87109375 87.09765625 C17.31938477 87.09282227 17.31938477 87.09282227 15.73632812 87.08789062 C14.64771484 87.07951172 13.55910156 87.07113281 12.4375 87.0625 C10.7987793 87.05573242 10.7987793 87.05573242 9.12695312 87.04882812 C6.41794568 87.0369984 3.7089662 87.01906231 1 87 C0.67 82.71 0.34 78.42 0 74 C-0.66 75.216875 -1.32 76.43375 -2 77.6875 C-5.2160216 82.8404437 -9.45150388 86.07915059 -15.36328125 87.61328125 C-25.19841617 89.0557677 -35.3127427 88.90124451 -43.69921875 83.1484375 C-53.38020092 75.14926099 -54.76525783 68.34742172 -56 56 C-64.25 56 -72.5 56 -81 56 C-81.45572917 52.64713542 -81.91145833 49.29427083 -82.3671875 45.94140625 C-82.57601562 44.97074219 -82.78484375 44.00007813 -83 43 C-85.36613456 41.81693272 -86.86780736 41.86645392 -89.5 41.875 C-90.2940625 41.87242188 -91.088125 41.86984375 -91.90625 41.8671875 C-94.05918534 41.86722004 -94.05918534 41.86722004 -96 43 C-96.02505615 44.29736084 -96.0501123 45.59472168 -96.07592773 46.93139648 C-96.16981752 51.72658856 -96.27008249 56.5216295 -96.37231445 61.31665039 C-96.41573334 63.39539057 -96.45740312 65.47416803 -96.49731445 67.55297852 C-96.55484921 70.53413145 -96.61859119 73.51509549 -96.68359375 76.49609375 C-96.70866249 77.89921059 -96.70866249 77.89921059 -96.73423767 79.33067322 C-96.75418289 80.19149002 -96.77412811 81.05230682 -96.79467773 81.93920898 C-96.81022202 82.70087875 -96.8257663 83.46254852 -96.84178162 84.24729919 C-97 86 -97 86 -98 87 C-105.92 87 -113.84 87 -122 87 C-122 65.22 -122 43.44 -122 21 C-114.41 21 -106.82 21 -99 21 C-98.67 25.29 -98.34 29.58 -98 34 C-97.484375 32.783125 -96.96875 31.56625 -96.4375 30.3125 C-94.21042971 25.82654412 -91.37045838 23.362684 -87 21 C-80.42231087 18.80743696 -71.75159326 18.71997358 -65.375 21.625 C-58.84838732 25.64672935 -57.2861529 31.74141131 -55.515625 38.8046875 C-55.34546875 39.52914062 -55.1753125 40.25359375 -55 41 C-54.64808594 40.20335937 -54.29617188 39.40671875 -53.93359375 38.5859375 C-50.03010508 30.20821508 -46.65235574 25.58464208 -38.625 21.125 C-30.35255355 18.44291775 -19.21356155 18.43943821 -11.25 22.0625 C-6.01957301 25.19006367 -2.93951569 29.18145293 -1 35 C-0.67 23.45 -0.34 11.9 0 0 Z M-29 46 C-31.5201997 50.92584486 -31.18376271 54.75762227 -30 60 C-27.6124483 63.21084539 -25.85196001 64.28815247 -22 65 C-12.00476358 65.76011728 -12.00476358 65.76011728 -3 62 C-0.54436865 59.54436865 -0.31461773 57.55870777 0.03125 54.16796875 C-0.02223903 50.45716707 -1.13693446 48.21218197 -3 45 C-6.69420768 42.26119086 -11.03514868 42.6687026 -15.4375 42.6875 C-16.18837891 42.67138672 -16.93925781 42.65527344 -17.71289062 42.63867188 C-22.28702361 42.63464889 -25.29928057 43.02532648 -29 46 Z " fill="#0085C9" transform="translate(400,0)"/>
<path d="M0 0 C4.62 0 9.24 0 14 0 C14 4.62 14 9.24 14 14 C25.22 14 36.44 14 48 14 C48 9.38 48 4.76 48 0 C52.62 0 57.24 0 62 0 C62 4.62 62 9.24 62 14 C69.59 14 77.18 14 85 14 C85 17.96 85 21.92 85 26 C77.41 26 69.82 26 62 26 C62.09703318 30.6269504 62.19982042 35.25302517 62.31738281 39.87939453 C62.35561829 41.45255765 62.39048066 43.02580658 62.421875 44.59912109 C62.46764422 46.86326723 62.52561761 49.12682547 62.5859375 51.390625 C62.60326431 52.44240936 62.60326431 52.44240936 62.62094116 53.51544189 C62.72959973 57.1267836 62.90958263 59.98184965 65 63 C67.23647631 64.11823815 68.64891529 64.19396061 71.1328125 64.31640625 C71.93847656 64.35830078 72.74414062 64.40019531 73.57421875 64.44335938 C74.41597656 64.48267578 75.25773438 64.52199219 76.125 64.5625 C77.39923828 64.62727539 77.39923828 64.62727539 78.69921875 64.69335938 C80.79928223 64.79954236 82.89961948 64.90028497 85 65 C85 69.62 85 74.24 85 79 C60.6676227 79.67451149 60.6676227 79.67451149 53.0625 73.6875 C48.47924998 67.71538634 47.56946312 63.1869422 47.70703125 55.8828125 C47.71127609 55.02565643 47.71552094 54.16850037 47.71989441 53.28536987 C47.73660114 50.56491836 47.77423781 47.84522518 47.8125 45.125 C47.82755722 43.27344825 47.8412438 41.42188481 47.85351562 39.5703125 C47.88391858 35.04635235 47.94265329 30.52401856 48 26 C36.78 26 25.56 26 14 26 C14.12375 31.3625 14.2475 36.725 14.375 42.25 C14.40899902 43.93641602 14.44299805 45.62283203 14.47802734 47.36035156 C14.51324814 48.70379589 14.54917104 50.04722208 14.5859375 51.390625 C14.59729736 52.08269043 14.60865723 52.77475586 14.62036133 53.48779297 C14.72882738 57.10768417 14.90403503 59.97384 17 63 C19.23647631 64.11823815 20.64891529 64.19396061 23.1328125 64.31640625 C23.93847656 64.35830078 24.74414062 64.40019531 25.57421875 64.44335938 C26.41597656 64.48267578 27.25773438 64.52199219 28.125 64.5625 C29.39923828 64.62727539 29.39923828 64.62727539 30.69921875 64.69335938 C32.79928223 64.79954236 34.89961948 64.90028497 37 65 C37 69.62 37 74.24 37 79 C12.6676227 79.67451149 12.6676227 79.67451149 5.0625 73.6875 C0.47924998 67.71538634 -0.43053688 63.1869422 -0.29296875 55.8828125 C-0.28872391 55.02565643 -0.28447906 54.16850037 -0.28010559 53.28536987 C-0.26339886 50.56491836 -0.22576219 47.84522518 -0.1875 45.125 C-0.17244278 43.27344825 -0.1587562 41.42188481 -0.14648438 39.5703125 C-0.11352165 35.04658567 -0.06179537 30.52342113 0 26 C-3.63 26 -7.26 26 -11 26 C-11.495 24.02 -11.495 24.02 -12 22 C-14.17581321 26.5956062 -16.35022849 31.19187078 -18.52352905 35.78866577 C-19.2986193 37.42767246 -20.07402957 39.06652785 -20.84976196 40.70523071 C-24.88017914 49.22027215 -28.89951308 57.73883285 -32.8125 66.30859375 C-33.10349075 66.94389008 -33.39448151 67.5791864 -33.69429016 68.23373413 C-35.04256637 71.17753407 -36.38380669 74.1240725 -37.71166992 77.07714844 C-46.01440796 95.2332113 -46.01440796 95.2332113 -54 99 C-61.94046875 101.26683349 -69.80036841 101.17633616 -78 101 C-78 96.38 -78 91.76 -78 87 C-76.80761719 86.93941406 -75.61523438 86.87882812 -74.38671875 86.81640625 C-72.82030075 86.73198851 -71.25389512 86.64734113 -69.6875 86.5625 C-68.90181641 86.52318359 -68.11613281 86.48386719 -67.30664062 86.44335938 C-66.54931641 86.40146484 -65.79199219 86.35957031 -65.01171875 86.31640625 C-64.31522217 86.27974854 -63.61872559 86.24309082 -62.90112305 86.20532227 C-60.7783428 86.04418847 -60.7783428 86.04418847 -58 85 C-56.04188839 82.33483044 -56.04188839 82.33483044 -55 79 C-56.40694919 72.90242832 -59.73511849 67.33421527 -62.55859375 61.79296875 C-63.67783128 59.57491869 -64.79696878 57.35681815 -65.91601562 55.13867188 C-67.6760883 51.66195784 -69.43812982 48.18625961 -71.20239258 44.71166992 C-72.90969642 41.34555568 -74.60947937 37.97572242 -76.30859375 34.60546875 C-76.83368027 33.57705368 -77.35876678 32.54863861 -77.89976501 31.48905945 C-80.7884896 25.75069685 -83.13548152 20.15048437 -85 14 C-79.72 14 -74.44 14 -69 14 C-60.40363029 29.57078286 -53.19424766 45.74425653 -46 62 C-45.56171875 60.86949219 -45.1234375 59.73898438 -44.671875 58.57421875 C-40.54562486 48.04390412 -36.15601221 37.64618101 -31.5625 27.3125 C-30.76440918 25.51268677 -30.76440918 25.51268677 -29.95019531 23.67651367 C-26.13057357 15.13057357 -26.13057357 15.13057357 -25 14 C-23.14630389 13.91262355 -21.28932459 13.89301847 -19.43359375 13.90234375 C-18.30888672 13.90556641 -17.18417969 13.90878906 -16.02539062 13.91210938 C-14.84138672 13.92048828 -13.65738281 13.92886719 -12.4375 13.9375 C-11.24962891 13.94201172 -10.06175781 13.94652344 -8.83789062 13.95117188 C-5.89190588 13.96300314 -2.94594684 13.98093924 0 14 C0 9.38 0 4.76 0 0 Z " fill="#052B40" transform="translate(611,8)"/>
<path d="M0 0 C28 0 28 0 33.875 5.8125 C35.10717773 7.84375 35.10717773 7.84375 35.87109375 9.6875 C38.22671252 14.74711192 41.53795508 18.91327612 44.9375 23.3125 C51.47267092 31.91352084 57.10180109 40.88460169 63 50 C63 33.5 63 17 63 0 C71.25 0 79.5 0 88 0 C88 28.71 88 57.42 88 87 C79.42 87 70.84 87 62 87 C54.14361702 78.0212766 54.14361702 78.0212766 50.8125 73.5 C50.05582031 72.47648437 49.29914063 71.45296875 48.51953125 70.3984375 C47.9155249 69.58004395 47.9155249 69.58004395 47.29931641 68.74511719 C45.90562845 66.87324919 44.49198901 65.01774973 43.07421875 63.1640625 C42.56463623 62.49439453 42.05505371 61.82472656 41.5300293 61.13476562 C40.55738828 59.85715578 39.58136362 58.58210947 38.60083008 57.31054688 C33.63233149 50.75339897 29.49897918 43.99841205 25 37 C25 53.5 25 70 25 87 C16.75 87 8.5 87 0 87 C0 58.29 0 29.58 0 0 Z " fill="#0085C8" transform="translate(108,0)"/>
<path d="M0 0 C6.16370769 5.11511011 10.08014079 11.27398236 11.5625 19.1875 C12.62888744 30.91776185 11.50038881 40.75432916 3.9375 50.0625 C-4.47612238 58.78831616 -14.96879185 61.18990518 -26.6875 61.5625 C-38.89836524 61.36653827 -48.41622096 58.00038492 -57.1484375 49.52734375 C-63.20106817 43.04660017 -64.99290444 36.04585006 -64.875 27.3125 C-64.86742676 26.52383545 -64.85985352 25.7351709 -64.85205078 24.92260742 C-64.60443281 16.143014 -62.21320624 9.18356288 -56.125 2.71484375 C-41.53789854 -10.48783373 -15.95836319 -11.00271621 0 0 Z M-38.4375 18.1875 C-40.78153398 23.51484995 -40.92531224 28.61359472 -39.4375 34.1875 C-37.52706046 36.91669934 -36.3239184 37.8920272 -33.1875 38.9375 C-26.20379477 39.57238229 -21.63250755 39.53280408 -15.4375 36.1875 C-13.13694003 32.73666005 -13.16739744 31.31574272 -13.1875 27.25 C-13.18234375 26.20972656 -13.1771875 25.16945313 -13.171875 24.09765625 C-13.43838652 21.17778737 -13.75451617 19.56817649 -15.4375 17.1875 C-18.83884436 14.7130809 -22.27337323 14.88813221 -26.375 14.875 C-27.58027344 14.85824219 -28.78554687 14.84148438 -30.02734375 14.82421875 C-33.69409023 15.21483435 -35.55026951 15.93135814 -38.4375 18.1875 Z " fill="#0085C8" transform="translate(263.4375,26.8125)"/>
<path d="M0 0 C0.78678131 0.32915405 1.57356262 0.65830811 2.38418579 0.99743652 C4.03458781 1.68961801 5.68336427 2.38568701 7.33056641 3.08544922 C9.86144405 4.16044722 12.39697593 5.22378324 14.93359375 6.28515625 C16.53934272 6.96027138 18.14482147 7.63602969 19.75 8.3125 C20.89050308 8.79221252 20.89050308 8.79221252 22.05404663 9.28161621 C27.35900689 11.53869439 27.35900689 11.53869439 28.4765625 12.65625 C28.57009413 14.34426985 28.59401041 16.03620207 28.59008789 17.72680664 C28.58997459 19.34837425 28.58997459 19.34837425 28.58985901 21.00270081 C28.58469772 22.1787236 28.57953644 23.3547464 28.57421875 24.56640625 C28.5728038 25.76357773 28.57138885 26.96074921 28.56993103 28.19419861 C28.56431229 32.03574066 28.55175661 35.87722543 28.5390625 39.71875 C28.53404991 42.31575437 28.52948659 44.91275965 28.52539062 47.50976562 C28.51433677 53.89194679 28.49758042 60.2740943 28.4765625 66.65625 C21.00589569 70.44182188 13.48729432 73.95960772 5.77148438 77.21533203 C4.48461299 77.76221964 3.20107373 78.317011 1.92089844 78.87939453 C0.03784104 79.70604428 -1.854264 80.50761704 -3.75 81.3046875 C-5.41409912 82.01890869 -5.41409912 82.01890869 -7.11181641 82.74755859 C-14.44174113 84.69989721 -20.50328147 82.16693575 -27.1796875 79.27734375 C-28.36129456 78.78005516 -28.36129456 78.78005516 -29.56677246 78.27272034 C-32.0564117 77.22241731 -34.53989095 76.15836812 -37.0234375 75.09375 C-38.72096461 74.37473065 -40.418878 73.65662254 -42.1171875 72.93945312 C-46.25714406 71.18888759 -50.39163827 69.42597808 -54.5234375 67.65625 C-54.64998923 59.87851287 -54.73768463 52.10104016 -54.7980957 44.32250977 C-54.82327344 41.67527342 -54.85741772 39.02810681 -54.90063477 36.38110352 C-54.96113914 32.58071716 -54.98961543 28.78124803 -55.01171875 24.98046875 C-55.03752518 23.79289474 -55.0633316 22.60532074 -55.08992004 21.38175964 C-55.0902977 20.28084488 -55.09067535 19.17993011 -55.09106445 18.0456543 C-55.10216751 17.07524704 -55.11327057 16.10483978 -55.12471008 15.10502625 C-54.5234375 12.65625 -54.5234375 12.65625 -52.21156311 10.92201233 C-48.78043302 9.3063902 -45.33717652 7.74084637 -41.84375 6.265625 C-41.11276093 5.95675354 -40.38177185 5.64788208 -39.62863159 5.32965088 C-38.08822411 4.68189063 -36.54678933 4.03656854 -35.00439453 3.39355469 C-33.43423224 2.73555092 -31.86713859 2.07017598 -30.30322266 1.39746094 C-28.03161056 0.42043375 -25.75169484 -0.53418058 -23.46875 -1.484375 C-22.77685577 -1.78635803 -22.08496155 -2.08834106 -21.37210083 -2.3994751 C-13.41261841 -5.64401107 -7.43309924 -3.17722396 0 0 Z M-38.5234375 13.65625 C-38.5234375 14.31625 -38.5234375 14.97625 -38.5234375 15.65625 C-34.73153552 17.43335301 -30.91289752 19.14362357 -27.0859375 20.84375 C-26.01666016 21.34583984 -24.94738281 21.84792969 -23.84570312 22.36523438 C-17.01056674 25.45837425 -17.01056674 25.45837425 -9.8046875 24.6875 C-8.36311801 24.04183284 -6.93555912 23.36400788 -5.5234375 22.65625 C-3.99435916 22.03949399 -2.46173914 21.43144924 -0.92578125 20.83203125 C0.56380739 20.21407963 2.05209756 19.59298857 3.5390625 18.96875 C4.30927734 18.64841797 5.07949219 18.32808594 5.87304688 17.99804688 C7.74205799 17.22025964 9.60948403 16.4386652 11.4765625 15.65625 C11.4765625 14.99625 11.4765625 14.33625 11.4765625 13.65625 C-7.72045112 2.76765449 -19.32642388 2.76765449 -38.5234375 13.65625 Z M-47.5234375 21.65625 C-47.5234375 34.85625 -47.5234375 48.05625 -47.5234375 61.65625 C-42.9240625 63.63625 -38.3246875 65.61625 -33.5859375 67.65625 C-32.13324463 68.28273437 -30.68055176 68.90921875 -29.18383789 69.5546875 C-27.48215454 70.28558594 -27.48215454 70.28558594 -25.74609375 71.03125 C-24.57828369 71.53398438 -23.41047363 72.03671875 -22.20727539 72.5546875 C-19.85277078 73.71953402 -19.85277078 73.71953402 -18.5234375 73.65625 C-18.5234375 60.45625 -18.5234375 47.25625 -18.5234375 33.65625 C-28.04730002 29.32722158 -37.7732055 25.44800689 -47.5234375 21.65625 Z M11.49609375 25.0625 C10.44784424 25.50916016 9.39959473 25.95582031 8.31958008 26.41601562 C6.98950928 26.99029297 5.65943848 27.56457031 4.2890625 28.15625 C0.0609375 29.97125 -4.1671875 31.78625 -8.5234375 33.65625 C-8.5234375 46.85625 -8.5234375 60.05625 -8.5234375 73.65625 C-2.4596875 71.243125 -2.4596875 71.243125 3.7265625 68.78125 C4.99532227 68.2773877 6.26408203 67.77352539 7.57128906 67.25439453 C8.57643555 66.85333496 9.58158203 66.45227539 10.6171875 66.0390625 C11.64360352 65.63059082 12.67001953 65.22211914 13.72753906 64.80126953 C16.01868573 63.84696421 18.25664328 62.76620961 20.4765625 61.65625 C20.4765625 48.78625 20.4765625 35.91625 20.4765625 22.65625 C16.89149765 22.65625 14.78926817 23.64884464 11.49609375 25.0625 Z " fill="#0D82C4" transform="translate(54.5234375,5.34375)"/>
<path d="M0 0 C23.1 0 46.2 0 70 0 C70 4.29 70 8.58 70 13 C51.85 13 33.7 13 15 13 C15 21.58 15 30.16 15 39 C32.49 39 49.98 39 68 39 C68 43.29 68 47.58 68 52 C50.51 52 33.02 52 15 52 C15 63.55 15 75.1 15 87 C10.05 87 5.1 87 0 87 C0 58.29 0 29.58 0 0 Z " fill="#062B40" transform="translate(431,0)"/>
<path d="M0 0 C4.95 0 9.9 0 15 0 C15.02312269 11.19573244 15.04091471 22.39145924 15.05181217 33.58721066 C15.05704116 38.78528115 15.0641391 43.98333536 15.07543945 49.18139648 C15.08626776 54.19342268 15.09227671 59.20543318 15.09487724 64.21747017 C15.09673159 66.13412282 15.1003524 68.05077457 15.10573006 69.96742058 C15.11293975 72.64228072 15.11399097 75.31707514 15.11352539 77.99194336 C15.11712067 78.7925116 15.12071594 79.59307983 15.12442017 80.41790771 C15.11405216 85.88594784 15.11405216 85.88594784 14 87 C9.38 87 4.76 87 0 87 C0 58.29 0 29.58 0 0 Z " fill="#062B40" transform="translate(508,0)"/>
</svg>
